<svg width="3108" height="1129" viewBox="0 0 3108 1129" fill="none" xmlns="http://www.w3.org/2000/svg">
<path d="M65 336H735C770.9 336 800 365.1 800 401C800 436.9 770.9 466 735 466H65C29.1 466 0 451.9 0 401C0 350.1 29.1 336 65 336Z" fill="#2F32B3"></path>
<path d="M400 1C450.9 1 465 30.1 465 66V736C465 771.9 435.9 801 400 801C364.1 801 335 771.9 335 736V66C335 30.1 349.1 1 400 1Z" fill="#2F32B3"></path>
<path fill-rule="evenodd" clip-rule="evenodd" d="M800 401C800 451.9 770.9 466 735 466H465C429.1 466 400 436.9 400 401C400 365.1 429.1 336 465 336H735C770.9 336 800 350.1 800 401Z" fill="#34D7F4"></path>
<path fill-rule="evenodd" clip-rule="evenodd" d="M399.8 803C348.9 803 334.8 773.9 334.8 738V468C334.8 432.1 363.9 403 399.8 403C435.7 403 464.8 432.1 464.8 468V738C464.8 773.9 450.7 803 399.8 803Z" fill="#34D7F4"></path>
<path d="M196 262C231.899 262 261 232.899 261 197C261 161.101 231.899 132 196 132C160.101 132 131 161.101 131 197C131 232.899 160.101 262 196 262Z" fill="#34D7F4"></path>
<path d="M334.8 466C334.8 394.1 392.9 335.9 464.8 335.9V466H334.8Z" fill="#34D7F4"></path>
<path d="M800 0C850.9 0 865 29.1 865 65V735C865 770.9 850.9 800 800 800C749.1 800 735 770.9 735 735V65C735 29.1 749.1 0 800 0Z" fill="#2F32B3"></path>
<path d="M1234 735C1363.79 735 1469 629.787 1469 500C1469 370.213 1363.79 265 1234 265C1104.21 265 999 370.213 999 500C999 629.787 1104.21 735 1234 735Z" stroke="#2F32B3" stroke-width="130"></path>
<path fill-rule="evenodd" clip-rule="evenodd" d="M1678 239C1728.9 239 1743 264.899 1743 296.85V1071.15C1743 1103.1 1728.9 1129 1678 1129C1627.1 1129 1613 1103.1 1613 1071.15V296.85C1613 264.899 1627.1 239 1678 239Z" fill="#2F32B3"></path>
<path d="M1913 735C2042.79 735 2148 629.787 2148 500C2148 370.213 2042.79 265 1913 265C1783.21 265 1678 370.213 1678 500C1678 629.787 1783.21 735 1913 735Z" stroke="#2F32B3" stroke-width="130"></path>
<path d="M2808 735C2937.79 735 3043 629.787 3043 500C3043 370.213 2937.79 265 2808 265C2678.21 265 2573 370.213 2573 500C2573 629.787 2678.21 735 2808 735Z" stroke="#34D7F4" stroke-width="130"></path>
<path fill-rule="evenodd" clip-rule="evenodd" d="M3043 239C3093.9 239 3108 266.209 3108 299.775V739.225C3108 772.792 3093.9 800 3043 800C2988.1 800 2978 772.792 2978 739.225V299.775C2978 266.209 2988.1 239 3043 239Z" fill="#34D7F4"></path>
<path fill-rule="evenodd" clip-rule="evenodd" d="M2362 239C2412.9 239 2427 266.209 2427 299.775V739.225C2427 772.792 2412.9 800 2362 800C2311.1 800 2297 772.792 2297 739.225V299.775C2297 266.209 2311.1 239 2362 239Z" fill="#34D7F4"></path>
<path d="M2362 130C2397.9 130 2427 100.899 2427 65C2427 29.1015 2397.9 0 2362 0C2326.1 0 2297 29.1015 2297 65C2297 100.899 2326.1 130 2362 130Z" fill="#34D7F4"></path>
</svg>